<svg t="1572512236143" class="icon" viewBox="0 0 1024 1024" version="1.1" xmlns="http://www.w3.org/2000/svg" p-id="16330" width="200" height="200"><path d="M741.888 597.33333333h-49.664v164.864h-165.376v50.176h165.376v164.864h49.664v-164.864h164.864v-50.176h-164.864zM699.904 133.97333333c0-26.112-20.992-47.104-47.104-47.104H604.16c-17.408-34.304-52.736-56.832-92.16-56.832s-75.264 22.528-92.16 56.832h-48.64c-26.112 0-47.104 20.992-47.104 47.104v122.368h374.784l1.024-122.368z m-37.888 88.064h-300.544v-84.992c0-5.12 4.608-9.728 9.728-9.728h74.752l4.608-12.8c8.704-26.112 33.792-44.032 61.952-44.032s52.736 17.92 61.952 44.032l4.608 12.8h74.752c5.12 0 9.728 4.608 9.728 9.728v84.992z" p-id="16331"></path><path d="M166.912 927.57333333V207.18933333h155.648c4.096-3.072 9.216-5.12 15.36-5.12h2.048c-2.048-6.656-1.536-13.824 1.536-19.456-4.608-4.096-6.656-10.24-7.168-16.384-4.096-2.048-7.168-5.12-9.728-9.216h-207.36v820.224h378.88v-50.176h-329.216zM692.224 157.52533333v-1.536c-1.024 1.536-2.56 2.56-4.096 4.096 2.56 11.264 1.536 20.992 1.024 32.256 0 1.536-0.512 3.072-0.512 4.608 2.048 3.072 3.584 6.656 4.608 10.752h164.864V569.68533333h50.176v-411.648h-216.064z" p-id="16332"></path><path d="M287.232 547.15733333h280.064v50.176h-280.064zM287.232 396.62933333H737.28v50.176h-450.048z" p-id="16333"></path></svg>