<svg t="1571897919415" class="icon" viewBox="0 0 1024 1024" version="1.1" xmlns="http://www.w3.org/2000/svg" p-id="1398" width="200" height="200"><path d="M1002.709333 371.841219L851.709562 133.751467c-13.185219-20.7616-40.738133-26.904381-61.561905-13.833753L36.551924 596.655543c-20.766476 13.185219-26.904381 40.738133-13.861791 61.442438L173.689905 896.21821c13.186438 20.709181 40.738133 26.847086 61.505828 13.777676l753.623772-476.704915c20.823771-13.192533 27.079924-40.711314 13.889828-61.449752z m-30.076343 35.861943L219.009219 884.470248c-6.665752 4.199619-15.390476 2.233295-19.590095-4.404419L48.419352 641.946819c-4.200838-6.666971-2.233295-15.362438 4.432458-19.619352l753.653028-476.737829c6.671848-4.171581 15.42339-2.200381 19.562057 4.437333l151.061943 238.115353c4.052114 6.523124 2.056533 15.275886-4.495848 19.560838zM322.985448 256.618057l12.514742 30.014172 16.214553-28.166096 32.394971-2.614857-21.82339-24.143238 7.432533-31.575771-29.609447 13.309562-27.813791-16.833829 3.523048 32.338895-24.671086 21.033448 31.837867 6.637714z m191.885409-89.352533l-15.567238-28.575695-13.185219 29.752076-32.014629 6.109866 24.171277 21.675886-4.171581 32.219429 28.195352-16.301105 29.404648 13.953219-6.785219-31.837867 22.290285-23.61539-32.337676-3.380419z m292.548267 478.676114l-25.762134-19.799771-0.11459 32.457143-26.904381 18.243047 30.985752 10.220495 9.133105 31.161296 19.209753-26.229029 32.514438 0.910629-19.090286-26.372877 11.014095-30.461561-30.985752 9.870628zM702.266514 775.350857l-12.275809-30.104381-16.481524 28.052724-32.366933 2.349105 21.61859 24.260266-7.695848 31.542858 29.781334-13.009677 27.700419 17.209296-3.262172-32.366934 24.671086-21.000533-31.689143-6.932724z m-192.624152 88.00061l15.424609 28.695162 13.452191-29.666743 32.014628-5.723429-24.028647-21.914819 4.409295-32.190171-28.314819 16.009752-29.257143-14.1568 6.519467 31.775695-22.614553 23.530057 32.394972 3.641296zM221.09501 382.417676l25.614628 20.119162 0.380343-32.485181 27.023848-18.152838-30.813867-10.428952-8.900267-31.3088-19.44259 26.052266-32.514438-1.176381 18.82819 26.494781-11.223771 30.548115 31.047924-9.662172zM106.691048 522.665448c-3.4048-137.519543 63.47581-273.481143 188.071009-352.285258 124.623238-78.805333 276.124038-81.038629 399.190553-19.295085l29.724038-18.800153c-36.419048-20.353219-75.600457-35.247543-116.866438-44.500114-55.133867-12.395276-111.290514-13.948343-166.805943-4.814019-57.480533 9.513448-111.818362 30.251886-161.456762 61.70941-49.609143 31.456305-91.671162 71.637333-124.862172 119.514209-32.132876 46.171429-54.718171 97.604267-67.142704 152.646705-9.252571 41.205029-12.542781 82.972038-9.662172 124.596419l29.810591-18.772114z m809.285485-21.028572c3.552305 137.519543-63.328305 273.481143-187.923504 352.257219-124.5952 78.890667-276.122819 81.066667-399.162515 19.324343l-29.781333 18.828191c36.419048 20.294705 75.628495 35.220724 116.900571 44.470857 55.127771 12.395276 111.285638 14.010514 166.799848 4.814019 57.480533-9.514667 111.819581-30.223848 161.428724-61.681372s91.671162-71.638552 124.890209-119.486171c32.014629-46.228724 54.599924-97.628648 66.9952-152.643048 9.28061-41.237943 12.514743-83.03299 9.632915-124.656152l-29.780115 18.772114zM384.637562 312.189562c34.895238-22.02819 73.281829-33.781029 111.819581-36.128914l45.994667-29.080381c-60.771962-7.166781-121.628038 6.523124-174.143391 39.684876-52.371505 33.128838-90.761752 82.328381-110.2336 140.247771l45.966629-29.075504c18.681905-33.95779 45.73501-63.562362 80.596114-85.647848zM638.147048 712.084724c-34.895238 22.090362-73.252571 33.838324-111.790324 36.186209l-45.967848 29.080381c60.743924 7.166781 121.571962-6.552381 174.115353-39.714133 52.371505-33.099581 90.761752-82.328381 110.204342-140.247771l-45.93859 29.137676c-18.679467 33.80541-45.76061 63.529448-80.622933 85.557638z m-338.951315-63.914667" p-id="1399" fill="#707070"></path><path d="M139.871086 644.476343l136.065219-87.271619 1.083733-14.716343 23.276495 1.428724-4.670171 11.17379c21.238248 33.11421 35.531581 54.729143 42.878781 64.804572l-10.793448 13.933714-7.965257-12.418438-118.358552 75.912533 46.195809 72.02621c5.039543 9.235505 12.981638 9.982781 23.808 2.255238l111.83421-71.728762c11.540724-6.61699 15.262476-14.464 11.204266-23.544686-4.071619-9.070933-10.747124-21.533257-20.036266-37.393066l4.6592-2.987886c18.054095 28.14781 32.096305 39.788495 42.121752 34.912305 0.78019 13.521676-7.269181 24.907581-24.122514 34.166247L267.512686 788.114286c-12.698819 8.912457-23.330133 6.019657-31.913448-8.74301-36.455619-56.838095-57.840152-89.473219-64.119467-97.918781l26.2144-6.295162-3.738819 10.576457 4.247162 6.624305 118.358553-75.913752-35.575467-55.466667-107.17501 68.740876c-8.081067 5.18339-15.006476 10.794667-20.77379 16.828953l-13.165714-2.071162z" p-id="1400" fill="#707070"></path><path d="M254.027581 799.252724c-9.20381 0-17.153219-5.617371-23.6288-16.698514-36.071619-56.238324-57.542705-89.033143-63.811048-97.464077l-5.507657-7.408152 46.099505-11.070171-5.828267 16.483961 106.787353-68.493409-28.993829-45.204724-102.044038 65.449448c-7.632457 4.895695-14.24701 10.247314-19.658362 15.90979l-2.202819 2.305219-32.163352-5.054171 147.004952-94.288457 1.301943-17.683505 37.841676 2.322286-6.742552 16.131657c20.193524 31.44899 33.965105 52.238629 40.94659 61.814247l2.698972 3.701029-18.885486 24.380952-9.335467-14.554209-108.096609 69.332114 43.125028 67.265829c2.3808 4.36419 4.534857 4.36419 5.454019 4.36419 1.665219 0 4.657981-0.720457 9.462248-4.149638l0.251124-0.170667 112.093866-71.886019c12.512305-7.174095 9.918171-12.9792 8.671086-15.770819-3.964343-8.832-10.604495-21.216305-19.730286-36.800609l-2.958628-5.051734 14.717562-9.437866 3.290209 5.130971c19.21219 29.953219 28.980419 33.187352 32.288915 33.187353 0.736305 0 1.383619-0.147505 2.035809-0.465677l8.224914-4.000914 0.526629 9.130667c0.919162 15.947581-8.194438 29.32419-27.088457 39.758019l-129.26781 82.909866c-5.775848 4.03139-11.454171 6.075733-16.878933 6.075734z m-72.412648-113.966324c9.857219 14.457905 29.6704 44.886552 59.114057 90.793448l0.138972 0.226742c4.149638 7.136305 8.577219 10.754438 13.159619 10.754439 2.902552 0 6.262248-1.325105 9.984-3.936305l0.210895-0.14141 3.197562-2.051657c-3.153676 1.375086-6.145219 2.052876-9.030705 2.052876-4.667733 0-11.223771-1.83101-16.046323-10.515504l-55.128991-85.956267 0.992305-2.809905-6.591391 1.583543z m216.271238-15.969524a186.681295 186.681295 0 0 1 2.106515 4.517791c2.641676 5.914819 4.737219 16.392533-6.371962 26.154666l0.49859-0.302323c11.663848-6.408533 18.39421-13.574095 20.384915-21.758781-5.202895-0.570514-10.691048-3.395048-16.618058-8.611353z m-72.903923-51.03299l3.198781 4.987124 2.72579-3.52061c-7.920152-11.246933-21.200457-31.416076-40.411429-61.369295l-1.726171-2.690438 2.596571-6.215924-8.710095-0.533943-0.287695 3.907048 0.457143-0.292572 42.157105 65.72861z" p-id="1401" fill="#707070"></path><path d="M445.755733 594.338133l58.464305-50.350323 2.123581 3.312152c-6.393905 6.435352-16.34499 16.90941-29.839848 31.407543-13.508267 14.504229-22.382933 26.624-26.653257 36.373943l-19.808304-8.326096c3.90339-4.843276 6.79619-10.58621 8.668647-17.245866 1.866362-6.637714 4.501943-25.086781 7.922591-55.322819a517.000533 517.000533 0 0 0-19.0464 17.472609 84.879848 84.879848 0 0 0-15.057677 19.588876l-17.946819-9.5232c6.203733-3.978971 8.469943-16.532724 6.769372-37.639314-1.70179-21.110248-5.385752-41.531733-11.025067-61.282743l25.412267-3.446247-5.733181 9.518323c1.11421 30.449371 0.942324 58.220495-0.510781 83.286553l36.74819-24.738134c0.736305-15.258819 0.4352-28.704914-0.877714-40.330971l23.678781 0.002438-5.731962 9.520762c-4.302019 31.584305-10.146133 64.160914-17.556724 97.722514z m26.115657 67.377981l-19.408457-9.752381c7.988419-6.676724 17.245867-15.152762 27.768686-25.404952 10.522819-10.254629 26.386286-26.856838 47.620876-49.823695l3.057372 2.7136c-35.714438 45.508267-55.395962 72.919771-59.038477 82.267428z m38.602362-218.719085c-14.510324-22.625524-24.389486-37.322362-29.604571-44.1088l29.270552-3.584-5.603962 11.772342 18.054096 28.149029 34.481981-22.117181 4.8128-17.106895 25.400076 4.738438-61.509486 39.452038 23.895772 37.256533 25.162361-16.138971 4.811581-17.106895 25.400077 4.738438-79.216153 50.808685c-8.081067 5.18339-15.005257 10.793448-20.772571 16.830172l-13.166934-2.069943 45.665524-29.288838-23.894552-37.256533-23.298438 14.943085c-8.081067 5.18339-15.006476 10.793448-20.773791 16.830172l-13.166933-2.069943 54.052571-34.670933z m57.367162 173.522895c-7.178971-12.539124-15.876876-26.804419-26.147352-42.819048-10.263162-16.001219-19.435276-29.598476-27.48221-40.795428l19.690058-2.11261 63.37219-40.646705 3.6096-12.829257 20.481219 3.220724-5.201676 10.347276 21.769752 33.941943c7.790933 12.14781 13.58019 20.499505 17.392153 25.067276l-9.860877 13.335162-10.620342-16.557105-66.168686 42.438705 8.496762 13.247391-9.330591 14.161676z m-32.618057-79.5648l30.266514 47.188114 66.168686-42.438705-30.266514-47.189333-66.168686 42.439924z" p-id="1402" fill="#707070"></path><path d="M475.118933 670.17021l-33.6896-16.928915 7.124115-5.955047c7.789714-6.509714 17.015467-14.952838 27.424914-25.092877 10.341181-10.079086 26.288762-26.76541 47.400228-49.596952l4.053334-4.384914 8.118857 7.204571c-9.659733-15.01501-18.500267-28.114895-26.289981-38.954666l-6.109867-8.501639 28.669562-3.075657 60.212419-38.620647 4.448305-15.812267 34.078476 5.358933-7.391085 14.705372 19.894857 31.017447c7.634895 11.905219 13.333943 20.131352 16.939885 24.451658l3.069562 3.677866-17.965104 24.298057-12.103924-18.869638-55.907962 35.857067 7.344762 11.451733-16.965486 25.751162-4.924952-8.604038c-6.762057-11.810133-14.889448-25.163581-24.182248-39.7312l-2.663619 3.393829c-43.832076 55.849448-55.818971 74.721524-58.155886 80.718019l-2.429562 6.242743z m-11.751619-19.547429l5.772191 2.900114c2.485638-4.387352 6.735238-11.005562 14.265295-21.546666-7.266743 7.054629-13.973943 13.294933-20.037486 18.646552z m61.805715-112.763124c6.637714 9.550019 13.893486 20.456838 21.651504 32.55101 7.954286 12.40381 15.107657 23.981105 21.339429 34.540495l1.738362-2.638019-41.557334-64.7936-3.171961 0.340114z m18.471009 0.93501l23.686095 36.926171 55.906743-35.857067-23.686095-36.92739-55.906743 35.858286z m94.1824 1.237333l7.994514 12.463543 1.840762-2.489295c-3.746133-4.983467-8.647924-12.206324-14.857752-21.889219l-23.644648-36.865219 3.011048-5.9904-6.882743-1.082515-0.999619 3.555962 33.538438 52.297143z m-184.801524 82.9952l-32.810666-13.791086 5.082209-6.306133c3.373105-4.18499 5.912381-9.25501 7.547124-15.071086 1.418971-5.044419 3.385295-17.910248 5.861181-38.332952a472.807619 472.807619 0 0 0-6.881524 6.517028 79.132038 79.132038 0 0 0-13.973943 18.183315l-2.911085 5.200457-32.420572-17.201981 8.775924-5.628343c1.042286-0.668038 6.133029-5.354057 3.983848-32.019505-1.656686-20.5568-5.293105-40.777143-10.810515-60.099047l-1.93219-6.766934 44.988952-6.100114-11.360305 18.859886c0.874057 24.97219 0.878933 48.401067 0.015848 69.847771l24.110324-16.2304c0.536381-13.589943 0.208457-25.79139-0.978895-36.308114l-0.765562-6.780343h1.39459l62.108038-39.834819c-12.50621-19.401143-21.248-32.360838-26.010819-38.557257l-6.507276-8.466286 50.883048-6.230552-8.916115 18.731885 12.934096 20.166705 27.401752-17.575009 5.69539-20.241067 45.993448 8.579657-69.323581 44.463543 17.312914 26.994591 18.082134-11.59802 5.692952-20.241066 45.994667 8.579657-92.162438 59.1104c-7.633676 4.896914-14.248229 10.249752-19.655924 15.911009l-2.204038 2.306439-32.163353-5.05661 54.036724-34.658743-17.312914-26.99459-18.168686 11.652876c-6.2976 4.039924-11.899124 8.388267-16.70339 12.963352h2.880609l-10.647162 17.683505c-3.530362 25.697524-8.121295 52.267886-13.683809 79.21981l50.062628-43.114058 8.554058 13.336381-3.447467 3.470629c-6.3232 6.363429-16.315733 16.88259-29.700876 31.263695-12.964571 13.920305-21.553981 25.582933-25.531734 34.667276l-2.407619 5.494248z m-10.6752-17.711543l4.5824 1.926095c2.285714-4.181333 5.212648-8.656457 8.811276-13.459504l-13.393676 11.533409z m-35.534019-44.001524l3.479162 1.846857a91.696762 91.696762 0 0 1 6.024533-8.244419l-9.503695 6.397562z m45.246172-68.126476c0.643657 8.432152 0.822857 17.70179 0.535162 27.693105l1.119085-0.978895a1109.49181 1109.49181 0 0 0 3.557181-24.110324l0.169448-1.244648 0.817981-1.358019-6.198857-0.001219z m-54.019657-25.27939a319.208838 319.208838 0 0 1 6.562133 31.672076 1058.104076 1058.104076 0 0 0-0.687543-30.482286l-0.067048-1.812724 0.107277-0.177981-5.914819 0.800915z m117.457676-28.366019l27.078704 42.221714 1.854172-1.189791-23.683657-36.926171h-0.001219l-23.172876-36.131352 2.29059-4.814019-8.021333 0.982552c5.692952 8.196876 13.608229 20.195962 23.655619 35.857067z m68.503162 11.6736l-1.365334 4.854247 6.170819-3.958247-4.805485-0.896zM566.242743 403.017143l-1.365333 4.854247 6.172038-3.958247-4.806705-0.896z" p-id="1403" fill="#707070"></path><path d="M695.9104 440.903924c-6.465829-11.426133-13.844724-23.636114-22.167162-36.610438a887.070476 887.070476 0 0 0-25.091657-37.070019l20.622629-2.711162 50.324723-32.277943-16.991085-26.491124-66.168686 42.439924c-8.082286 5.18339-15.006476 10.793448-20.77501 16.827733l-13.165714-2.069943 96.922819-62.165333a591.744 591.744 0 0 0-20.578743-30.033676l30.072686-6.434133-5.072457 12.600076 9.558552 14.901638L783.299048 246.979048l5.613714-19.959467 29.259581 4.603124-101.583238 65.154438 16.991085 26.491124 50.325943-32.277943 1.614019-13.889829 22.744991 0.599772-4.269105 9.749943c14.866286 23.18019 25.443962 38.997333 31.728152 47.417295l-11.194514 15.358781-7.433752-11.589486-42.870248 27.496838c40.41021 19.265829 83.10979 19.538895 128.099962 0.797257l2.123581 3.312153c-10.747124 9.22941-15.105219 17.465295-13.069409 24.739352-49.309257 5.152914-89.92061-3.466971-121.814553-25.859657l-4.6592 2.989105c27.966171 43.605333 45.0816 69.614933 51.375543 78.049523l-11.5968 16.783848c-13.192533-21.917257-29.864229-48.6144-50.041905-80.074362-2.379581 48.264533-19.548648 93.945905-51.530362 137.041676l-3.457219-1.287314c25.947429-47.022324 38.698667-91.421257 38.222019-133.179733l-38.211047 24.507733 7.434971 11.589486-11.190857 15.361219z m-24.380952-70.825448l24.955123 38.909562 51.258515-32.876495-24.956343-38.909562-51.257295 32.876495z m65.236114-41.84259l24.957562 38.909562 52.189866-33.473829-24.956342-38.909562-52.191086 33.473829z" p-id="1404" fill="#707070"></path><path d="M705.281219 531.224381l-14.375009-5.351619 3.415771-6.190324c23.00099-41.682895 35.509638-81.6384 37.262629-118.954667l-23.492267 15.067429 6.395124 9.969371-19.223162 26.374096-4.657981-8.232229c-6.482895-11.45661-13.883733-23.677562-21.992838-36.321524a886.8608 886.8608 0 0 0-24.918553-36.815238l-5.908723-8.263924 29.344914-3.857066 44.047847-28.251429-10.409447-16.2304-61.037714 39.148495c-7.634895 4.896914-14.248229 10.248533-19.659581 15.909791l-2.204039 2.305219-32.160914-5.05661 105.268419-67.518171a585.468343 585.468343 0 0 0-17.0496-24.610133l-5.556419-7.592229 50.4832-10.800762-8.17859 20.316648 4.567771 7.121676 62.816305-40.289524 6.453638-22.941257 50.452724 7.937219-109.953219 70.523124 10.409447 16.2304 42.764191-27.428572 1.924876-16.557104 37.372343 0.982552-6.59261 15.057676c13.8496 21.54179 23.843352 36.443429 29.720381 44.318476l2.689219 3.603505-19.089066 26.191238-8.951467-13.956876-28.110019 18.029714c16.382781 6.378057 33.261714 9.604876 50.313752 9.604877 20.15939 0 41.194057-4.504381 62.520077-13.3888l4.716495-1.965105 7.74339 12.074666-4.020419 3.453562c-6.011124 5.160229-12.8256 12.554971-11.170133 18.473448l1.9456 6.954667-7.182629 0.749714c-9.387886 0.981333-18.603886 1.478705-27.392 1.478705-32.822857 0.001219-61.742324-6.931505-86.186666-20.632381 22.880305 35.547429 37.238248 57.262324 42.732495 64.625371l2.616076 3.508419-19.451124 28.153905-4.870095-8.0896c-11.087238-18.41981-24.617448-40.183467-40.318781-64.853333-5.423543 42.76419-22.5792 83.831467-51.134171 122.309485l-2.729448 3.675429z m50.883048-153.273295l3.612038 5.632c17.556724 27.374933 32.747276 51.59619 45.249828 72.151771l3.796115-5.494247c-7.790933-11.048229-23.914057-35.652267-49.044724-74.836115l-3.29021-5.129752h0.001219l-44.925562-70.042819-14.549333-22.680381 1.966324-4.883505-9.742629 2.084572a606.858971 606.858971 0 0 1 15.211277 22.570666h0.001219l20.176457 31.458743 31.537981 49.169067z m-12.229486 7.843352l0.041448 3.582781c0.224305 19.657143-2.446629 39.998171-7.973791 60.893867 7.287467-20.757943 11.487086-42.030324 12.554972-63.698896l0.190171-3.8656-4.8128 3.087848z m-84.483657-13.842286a910.262857 910.262857 0 0 1 19.424305 29.051124c6.332952 9.874286 12.245333 19.503543 17.6384 28.725638l3.209752-4.404419-34.70141-54.10499-5.571047 0.732647z m20.499505-0.034133l18.373485 28.647619 40.996572-26.294857-18.374705-28.647619-40.995352 26.294857z m145.166628 14.449371c18.139429 3.876571 38.022095 4.90301 59.779657 3.102477 0.368152-3.624229 1.7408-7.331352 4.110629-11.1104-17.486019 5.663695-34.763581 8.526019-51.544991 8.526019-4.126476 0-8.241981-0.173105-12.345295-0.518096z m-79.930514-56.291961l18.374705 28.647619 41.929142-26.892191-18.374704-28.647619-41.929143 26.892191z m77.146209 5.435733l2.518553 3.927771 3.328-4.567771c-6.485333-9.051429-16.125562-23.56419-29.315657-44.129524l-1.760305-2.746514 1.944381-4.439772-8.117638-0.214552-0.365715 3.146362 0.2304-0.147505 31.537981 49.171505z m-29.018209-101.629562l-2.210133 7.861638 10.27779-6.592609-8.067657-1.269029z" p-id="1405" fill="#707070"></path></svg>