<?xml version="1.0" standalone="no"?><!DOCTYPE svg PUBLIC "-//W3C//DTD SVG 1.1//EN" "http://www.w3.org/Graphics/SVG/1.1/DTD/svg11.dtd"><svg class="icon" width="200px" height="200.00px" viewBox="0 0 1024 1024" version="1.1" xmlns="http://www.w3.org/2000/svg"><path  d="M854.662779 203.767893l-457.520201-122.592083c-20.49887-5.493108-42.342364 9.55768-48.789193 33.616632L325.90921 198.555172l351.096357 0c21.223371 0 38.426171 20.190855 38.426171 45.098127L715.431737 871.65529c0.234337-0.74599 0.455371-1.500167 0.660032-2.263553l164.016541-612.116185C886.553093 233.217622 875.162672 209.261001 854.662779 203.767893zM399.81443 406.64551l15.406898 0c2.830465 0 4.245697-1.414209 4.245697-4.245697l0-8.976442c0-2.830465-1.415232-4.245697-4.245697-4.245697l-15.406898 0c-2.832512 0-4.245697 1.416256-4.245697 4.245697l0 8.976442C395.568732 405.231301 396.982942 406.64551 399.81443 406.64551zM403.939377 393.059074l7.158027 0c3.233648 0 4.852518 1.61887 4.852518 4.852518 0 1.294482-0.48607 2.426259-1.456165 3.396353-0.8913 0.970094-2.023076 1.456165-3.396353 1.456165l-7.158027 0c-1.294482 0-2.426259-0.48607-3.396353-1.456165-0.970094-0.970094-1.455141-2.102894-1.455141-3.396353C399.086859 394.677944 400.703683 393.059074 403.939377 393.059074zM651.807674 220.047672l-473.65774 0c-21.222347 0-38.426171 20.190855-38.426171 45.099151l0 633.707946c0 24.909319 17.203824 45.099151 38.426171 45.099151l473.65774 0c21.223371 0 38.426171-20.189831 38.426171-45.099151L690.233845 265.147846C690.233845 240.23955 673.031045 220.047672 651.807674 220.047672zM433.297009 378.744044c0-1.375324 0.485047-2.506077 1.456165-3.396353 0.970094-0.971118 2.101871-1.456165 3.396353-1.456165 1.3743 0 2.506077 0.485047 3.396353 1.456165 0.970094 0.890276 1.455141 2.022053 1.455141 3.396353l0 3.518127c0 1.213641 0.606821 1.819438 1.819438 1.819438l19.773346 0c1.375324 0 2.506077 0.485047 3.396353 1.456165 0.971118 0.890276 1.456165 2.022053 1.456165 3.396353 0 3.234671-1.61887 4.851495-4.852518 4.851495l-0.727571 0 0 18.925025c-0.162706 15.932878-5.176906 28.832675-15.042601 38.698371-1.213641 1.294482-3.518127 3.560082-6.91448 6.79373l-5.095042 4.609994c-0.970094 0.890276-2.143826 1.294482-3.518127 1.213641-1.376347 0-2.508123-0.525979-3.396353-1.576915-2.103918-2.426259-1.983167-4.731768 0.364297-6.915503 5.822612-5.256724 9.66308-8.855692 11.524474-10.796904 7.925507-7.924483 12.04943-18.600637 12.373819-32.026414l0-18.925025-9.340739 0c-3.15383 0-5.864568-1.130753-8.128121-3.396353-2.264577-2.183735-3.396353-4.891404-3.396353-8.127098L433.297009 378.744044zM437.664479 397.062248c1.3743-0.079818 2.547009 0.323365 3.518127 1.213641 1.049912 0.8913 1.616824 1.983167 1.698688 3.275603l0.849344 10.310833c0.64673 7.763824 1.698688 14.881942 3.154853 21.351284 0.322341 1.376347 0.039909 2.709715-0.849344 4.003174-0.970094 1.294482-2.264577 1.940189-3.8814 1.940189-2.588965 0-4.16588-1.25355-4.731768-3.76065-1.698688-8.086166-2.831488-15.689331-3.396353-22.806425l-0.727571-10.311857C432.972621 399.12421 434.428785 397.385613 437.664479 397.062248zM430.87075 429.573709c0 1.294482-0.48607 2.426259-1.456165 3.396353-0.8913 0.970094-2.023076 1.456165-3.396353 1.456165l-21.472034 0-8.613168 25.110911c-1.1328 2.588965-3.195785 3.599991-6.186909 3.03308-2.993171-1.130753-4.003174-3.193739-3.032056-6.186909l7.521301-21.957081-2.668783 0c-1.294482 0-2.426259-0.48607-3.396353-1.456165s-1.455141-2.102894-1.455141-3.396353c0-1.3743 0.485047-2.506077 1.455141-3.396353 0.970094-0.970094 2.101871-1.456165 3.396353-1.456165l12.131295 0 0-1.819438c0-1.3743 0.485047-2.505054 1.455141-3.396353 0.971118-0.970094 2.101871-1.456165 3.396353-1.456165 1.3743 0 2.506077 0.48607 3.397377 1.456165 0.970094 0.8913 1.455141 2.023076 1.455141 3.396353l0 1.819438 12.616342 0c1.3743 0 2.506077 0.48607 3.396353 1.456165C430.384679 427.067632 430.87075 428.200432 430.87075 429.573709zM416.798243 447.406866l-8.128121 0c-1.213641 0-2.264577-0.444115-3.15383-1.335415-0.8913-0.88823-1.334391-1.981121-1.334391-3.27458 0-1.213641 0.444115-2.263553 1.334391-3.154853 0.889253-0.88823 1.940189-1.334391 3.15383-1.334391l8.128121 0c3.071965 0 5.741771 1.091868 8.006348 3.275603 2.183735 2.183735 3.275603 4.812609 3.275603 7.884574l0 0.728594c0 3.074012-1.091868 5.742794-3.275603 8.006348-2.264577 2.183735-4.934382 3.27458-8.006348 3.27458l-10.06831 0c-2.993171 0-4.489244-1.534959-4.489244-4.609994 0-2.991124 1.496074-4.488221 4.489244-4.488221l10.06831 0c1.456165 0 2.183735-0.728594 2.183735-2.183735l0-0.728594C418.981978 448.094528 418.254408 447.406866 416.798243 447.406866zM385.863696 393.422348c0-3.800559 1.334391-7.075139 4.003174-9.826809 2.7486-2.7486 5.984295-4.123924 9.705036-4.123924l0-0.849344c0-1.3743 0.485047-2.505054 1.456165-3.396353 0.970094-0.970094 2.101871-1.456165 3.396353-1.456165 1.3743 0 2.506077 0.48607 3.396353 1.456165 0.970094 0.8913 1.455141 2.023076 1.455141 3.396353l0 0.849344 5.944386 0c3.8814 0 7.196912 1.334391 9.94756 4.003174 2.668783 2.750647 4.003174 6.066159 4.003174 9.94756l0 8.976442c0 3.802606-1.334391 7.078209-4.003174 9.826809-2.750647 2.750647-6.065136 4.124947-9.94756 4.124947l-15.406898 0c-3.802606 0-7.078209-1.3743-9.826809-4.124947-2.750647-2.7486-4.124947-6.024204-4.124947-9.826809L385.86165 393.422348zM366.211101 379.229091c2.668783-1.697665 4.932336-1.25355 6.79373 1.334391l9.584286 14.558577c0.727571 1.1328 0.970094 2.346441 0.727571 3.6399-0.323365 1.294482-1.051959 2.304486-2.183735 3.032056-0.647753 0.567935-1.537006 0.849344-2.668783 0.849344-1.698688 0-3.03308-0.727571-4.003174-2.183735l-9.583263-14.435781C363.09718 383.27422 363.542318 381.00862 366.211101 379.229091zM360.266715 556.223201c0-1.373277 0.485047-2.506077 1.455141-3.39533 0.970094-0.971118 2.101871-1.457188 3.396353-1.457188l7.158027 0c3.15383 0 5.862521 1.134847 8.128121 3.397377 2.26253 2.182712 3.396353 4.894474 3.396353 8.128121l0 44.035936c0 1.213641 0.606821 1.818415 1.819438 1.818415l2.304486 0c3.233648 0 4.852518 1.61887 4.852518 4.852518 0 3.235694-1.61887 4.852518-4.852518 4.852518l-2.304486 0c-3.235694 0-5.944386-1.130753-8.127098-3.397377-2.2656-2.26253-3.396353-4.972245-3.396353-8.126075l0-44.035936c0-1.213641-0.606821-1.820462-1.819438-1.820462l-7.158027 0c-1.294482 0-2.426259-0.48607-3.396353-1.455141C360.752786 558.64946 360.266715 557.518706 360.266715 556.223201zM364.87671 526.016225c2.183735-2.344395 4.488221-2.466168 6.91448-0.363274l16.134469 14.071484c2.345418 2.184759 2.466168 4.489244 0.364297 6.915503-1.698688 2.266623-3.964288 2.38635-6.79373 0.363274l-16.134469-14.072507C362.935498 530.829857 362.772792 528.524348 364.87671 526.016225zM363.784842 473.003847c0-1.616824 0.564865-3.03308 1.698688-4.245697 1.212618-1.130753 2.626827-1.697665 4.245697-1.697665 1.698688 0 3.112897 0.566912 4.245697 1.697665 1.130753 1.213641 1.698688 2.628874 1.698688 4.245697s-0.566912 3.03308-1.698688 4.245697c-1.133823 1.130753-2.548032 1.697665-4.245697 1.697665-1.61887 0-3.03308-0.566912-4.245697-1.697665C364.349707 476.036927 363.784842 474.620671 363.784842 473.003847zM450.765869 732.974787c2.183735 2.264577 2.101871 4.569062-0.242524 6.915503-2.346441 2.023076-4.609994 1.940189-6.79373-0.243547l-17.46886-18.439978c-1.698688-1.696642-2.548032-3.8814-2.548032-6.54916 0.160659-2.426259 1.171686-4.529153 3.03308-6.309706l18.439978-16.98279c2.426259-2.184759 4.730745-2.102894 6.91448 0.2415 2.183735 2.508123 2.061962 4.812609-0.364297 6.915503l-17.953907 16.498766L450.765869 732.974787zM379.434264 698.523137c-2.426259-2.102894-2.547009-4.40738-0.363274-6.915503 2.183735-2.344395 4.488221-2.426259 6.91448-0.2415l18.560728 16.98279c1.859347 1.862417 2.830465 3.963265 2.911306 6.309706 0 2.667759-0.849344 4.852518-2.547009 6.54916l-17.34811 18.439978c-2.103918 2.104941-4.409426 2.184759-6.91448 0.243547-2.346441-2.346441-2.426259-4.650927-0.242524-6.915503l16.983813-17.953907L379.434264 698.523137zM392.89995 745.107105c0.970094-0.971118 2.101871-1.457188 3.396353-1.457188l9.94756 0c2.830465 0 4.245697-1.413186 4.245697-4.244674l0-39.063691c0-8.084119 3.678786-13.868869 11.039427-17.346063l12.131295-5.580089-53.741995 0c-1.294482 0-2.426259-0.48607-3.396353-1.457188-0.970094-0.969071-1.455141-2.102894-1.455141-3.39533 0-1.375324 0.485047-2.506077 1.455141-3.397377 0.971118-0.969071 2.101871-1.455141 3.396353-1.455141l66.599837 0c3.6399 0 5.862521 1.818415 6.67298 5.458315 0.807389 3.560082-0.446162 6.108115-3.76065 7.643074l-23.77652 11.040451c-3.6399 1.778506-5.459339 4.608971-5.459339 8.490372l0 39.063691c0 3.801583-1.334391 7.077186-4.003174 9.825786-2.750647 2.750647-6.065136 4.124947-9.94756 4.124947l-9.94756 0c-1.294482 0-2.426259-0.48607-3.396353-1.455141-0.971118-0.971118-1.456165-2.102894-1.456165-3.397377C391.443785 747.130182 391.928832 745.996358 392.89995 745.107105zM411.218154 604.02081c0.970094-0.971118 2.101871-1.455141 3.396353-1.455141l30.934546 0c3.233648 0 4.852518 1.616824 4.852518 4.850471 0 3.235694-1.61887 4.852518-4.852518 4.852518l-30.934546 0c-1.294482 0-2.426259-0.484024-3.396353-1.455141s-1.456165-2.102894-1.456165-3.397377C409.761989 606.042863 410.24806 604.91211 411.218154 604.02081zM409.761989 592.496335c0-3.233648 1.616824-4.852518 4.852518-4.852518l30.934546 0c3.233648 0 4.852518 1.61887 4.852518 4.852518 0 3.235694-1.61887 4.852518-4.852518 4.852518l-30.934546 0c-1.294482 0-2.426259-0.48607-3.396353-1.457188C410.24806 594.922594 409.761989 593.789795 409.761989 592.496335zM450.280822 626.341165l-12.131295 0c-3.235694 0-4.852518-1.61887-4.852518-4.852518s1.616824-4.852518 4.852518-4.852518l12.131295 0c1.3743 0 2.506077-0.484024 3.396353-1.455141 0.970094-0.971118 1.455141-2.102894 1.455141-3.39533l0-25.112957c0-1.373277-0.485047-2.506077-1.455141-3.39533-0.8913-0.971118-2.023076-1.457188-3.396353-1.457188l-40.275285 0c-1.294482 0-2.426259 0.48607-3.396353 1.457188-0.970094 0.889253-1.456165 2.023076-1.456165 3.39533l0 35.543517c0 1.293459-0.485047 2.426259-1.455141 3.397377-0.8913 0.971118-2.023076 1.455141-3.396353 1.455141-1.294482 0-2.426259-0.484024-3.396353-1.455141-0.971118-0.971118-1.456165-2.104941-1.456165-3.397377l0-35.543517c0-4.043083 1.414209-7.479345 4.245697-10.310833 2.911306-2.830465 6.348592-4.244674 10.311857-4.244674l40.275285 0c4.043083 0 7.479345 1.415232 10.310833 4.244674 2.830465 2.832512 4.245697 6.26775 4.245697 10.310833l0 25.112957c0 4.043083-1.416256 7.481392-4.245697 10.310833C457.760167 624.926956 454.323904 626.341165 450.280822 626.341165zM418.132634 566.777581l-22.443152 0c-1.294482 0-2.426259-0.48607-3.396353-1.455141-0.971118-0.971118-1.456165-2.102894-1.456165-3.397377 0-3.233648 1.616824-4.852518 4.852518-4.852518l22.443152 0c3.233648 0 4.852518 1.61887 4.852518 4.852518C422.985152 565.160757 421.367305 566.777581 418.132634 566.777581zM465.565946 752.750179c0 4.529153-1.61887 8.4126-4.852518 11.644201-3.154853 3.155876-6.996344 4.732791-11.524474 4.732791l-68.420299 0c-4.530177 0-8.370645-1.576915-11.524474-4.732791-3.235694-3.231601-4.852518-7.115048-4.852518-11.644201l0-52.892651c0-1.375324 0.48607-2.506077 1.456165-3.397377 0.970094-0.971118 2.101871-1.455141 3.396353-1.455141 1.3743 0 2.506077 0.484024 3.396353 1.455141 0.970094 0.8913 1.456165 2.023076 1.456165 3.397377l0 52.892651c0 1.778506 0.645706 3.355421 1.940189 4.730745 1.3743 1.293459 2.951215 1.940189 4.731768 1.940189l68.420299 0c1.859347 0 3.436262-0.647753 4.730745-1.940189 1.293459-1.375324 1.941212-2.952238 1.941212-4.730745l0-52.892651c0-1.375324 0.485047-2.506077 1.455141-3.397377 0.971118-0.971118 2.101871-1.455141 3.397377-1.455141 1.3743 0 2.505054 0.484024 3.396353 1.455141 0.970094 0.8913 1.456165 2.023076 1.456165 3.397377L465.565946 752.750179zM467.264635 565.323463c-0.890276 0.969071-2.023076 1.455141-3.396353 1.455141l-33.725102 0c-1.294482 0-2.426259-0.48607-3.396353-1.455141-0.971118-0.971118-1.456165-2.102894-1.456165-3.397377l0-10.67513-22.684652 0c-1.294482 0-2.426259-0.48607-3.396353-1.457188-0.971118-0.969071-1.456165-2.100848-1.456165-3.39533 0-1.375324 0.485047-2.506077 1.456165-3.397377 0.970094-0.969071 2.101871-1.455141 3.396353-1.455141l22.684652 0 0-5.823636L397.752468 535.722284c-1.294482 0-2.426259-0.484024-3.396353-1.455141-0.970094-0.971118-1.455141-2.102894-1.455141-3.39533 0-1.375324 0.485047-2.5071 1.455141-3.397377 0.971118-0.971118 2.101871-1.456165 3.396353-1.456165l27.538193 0 0-2.305509c0-1.3743 0.485047-2.505054 1.456165-3.396353 0.970094-0.970094 2.101871-1.455141 3.396353-1.455141 1.3743 0 2.506077 0.485047 3.396353 1.455141 0.970094 0.8913 1.455141 2.023076 1.455141 3.396353l0 2.305509 26.202779 0c1.375324 0 2.506077 0.485047 3.396353 1.456165 0.971118 0.890276 1.456165 2.023076 1.456165 3.397377 0 1.293459-0.485047 2.424212-1.456165 3.39533-0.890276 0.971118-2.022053 1.455141-3.396353 1.455141l-26.202779 0 0 5.823636 23.413246 0c1.3743 0 2.506077 0.48607 3.396353 1.455141 0.970094 0.8913 1.456165 2.023076 1.456165 3.397377 0 1.295506-0.48607 2.426259-1.456165 3.39533-0.890276 0.971118-2.022053 1.457188-3.396353 1.457188l-23.413246 0 0 5.821589 28.872584 0c3.233648 0 4.852518 1.61887 4.852518 4.852518C468.719776 563.220568 468.234729 564.351322 467.264635 565.323463zM467.507158 476.157677c-0.8913 0.970094-2.023076 1.456165-3.396353 1.456165l-69.997214 0c-6.147 0-11.121292-1.819438-14.921851-5.459339-3.802606-3.800559-5.701862-8.976442-5.701862-15.527648L373.489878 419.261852c0-1.940189-0.971118-2.911306-2.911306-2.911306l-4.852518 0c-1.294482 0-2.426259-0.48607-3.396353-1.456165s-1.455141-2.101871-1.455141-3.396353c0-1.3743 0.485047-2.506077 1.455141-3.396353 0.970094-0.970094 2.101871-1.456165 3.396353-1.456165l4.852518 0c3.476171 0 6.429433 1.255597 8.855692 3.76065 2.506077 2.426259 3.76065 5.380544 3.76065 8.855692l0 37.365003c0 3.963265 0.929162 6.834662 2.790556 8.613168 1.940189 1.779529 4.64888 2.667759 8.128121 2.667759l69.997214 0c1.3743 0 2.505054 0.48607 3.396353 1.456165 0.970094 0.8913 1.456165 2.023076 1.456165 3.396353C468.963323 474.05376 468.477252 475.18656 467.507158 476.157677zM467.627908 462.449467c-2.264577 1.779529-4.570085 1.497097-6.91448-0.849344l-6.551206-8.370645c-0.809435-1.049912-1.172709-2.223644-1.091868-3.518127 0.160659-1.292436 0.76748-2.384303 1.819438-3.27458 2.668783-1.941212 4.932336-1.656733 6.79373 0.848321l6.67298 8.249895C470.377532 458.123952 470.133985 460.429461 467.627908 462.449467z" /></svg>