<?xml version="1.0" standalone="no"?><!DOCTYPE svg PUBLIC "-//W3C//DTD SVG 1.1//EN" "http://www.w3.org/Graphics/SVG/1.1/DTD/svg11.dtd"><svg class="icon" width="200px" height="200.00px" viewBox="0 0 1024 1024" version="1.1" xmlns="http://www.w3.org/2000/svg"><path d="M512.0512 563.8912c143.0016 0 259.08736-118.55872 259.08736-264.87296 0-146.31936-116.08576-264.87808-259.09248-264.87808s-259.08736 119.1424-259.08736 264.87808c0 145.73568 116.08064 264.87296 259.08736 264.87296z m0.34816-473.1136c121.33888 0 203.86304 85.83168 203.86304 207.95392 0 122.11712-83.70176 204.18048-204.2624 204.18048-120.56064 0-206.06976-91.62752-206.06976-203.89376S391.0656 90.7776 512.39936 90.7776z m493.89568 797.89056l-18.54976-86.8864c-17.95072-83.29216-86.1696-155.264-170.53184-167.24992l-41.88672-5.9904a1885.87008 1885.87008 0 0 0-525.96224 0l-41.8816 5.9904c-84.37248 11.9808-153.18016 83.95776-170.53696 167.24992l-18.54976 86.8864c-5.38112 25.1648 0.59904 50.3296 16.75776 70.10816 16.1536 19.77344 39.49056 31.16032 65.21856 31.16032h824.54528c25.12896 0 49.06496-11.38688 65.21856-31.16032 15.55968-19.77344 21.53984-44.94336 16.15872-70.10816z m-87.48032 46.63808H106.5984c-10.77248 0-20.9408-4.79232-28.12416-13.184-7.18336-8.38656-9.5744-19.1744-7.18336-29.96224l18.54976-80.19456c13.76256-64.11264 59.00288-112.65024 123.6224-121.64096l41.88672-5.9904c169.89184-23.9616 336.79872-23.9616 506.69568 0l41.8816 5.9904c64.62464 8.99072 117.27872 58.12736 130.44224 121.64096l18.54976 80.19456c3.59424 10.1888 0.59904 21.57568-5.98016 29.96224-6.58432 8.39168-16.75776 13.184-28.12416 13.184z" /></svg>