<?xml version="1.0" standalone="no"?><!DOCTYPE svg PUBLIC "-//W3C//DTD SVG 1.1//EN" "http://www.w3.org/Graphics/SVG/1.1/DTD/svg11.dtd"><svg class="icon" width="200px" height="200.00px" viewBox="0 0 1024 1024" version="1.1" xmlns="http://www.w3.org/2000/svg"><path d="M358.7 907.1l328.5 0 0 57.1-328.5 0 0-57.1ZM227.7 42.9l587.8 0 0 57.1-587.8 0 0-57.1ZM952.4 260.9c-4.4 0-146.2 0-168.8 0 0-54.8 0-97.6 0-97.6L783.6 142 263.4 140l-0.6 20.9c0 0.6-1 33.1-1.8 100.1-18.3 0-165.5 0-170 0-38.2 2.2-26.4 48.5-26.4 48.5s53.6 151.2 87.7 247.6c13.8 38.9 23.1 47.8 57.7 42.8l-61.4-278.3 111.8 0c-0.4 44.6-0.6 98.8-0.6 163 0 189.2 181.3 286.9 233.1 310.9l0.8 83.7 59.4 0 0-83.8c51.5-24.2 230.7-121.7 230.7-305.2 0-18.2 0-94.4-0.1-168.6l111.2 0-61.4 278.3c34.6 5 43.9-3.8 57.7-42.8 34.4-96.7 87.7-247.6 87.7-247.6S990.6 263.2 952.4 260.9zM522.9 769c0 0-227.5-80.5-227.5-284.5S297 223 297.9 183l449.9 1.7c0 67.5 0.1 292.5 0.1 305.5C747.9 688.5 522.9 769 522.9 769z" /></svg>