<?xml version="1.0" standalone="no"?><!DOCTYPE svg PUBLIC "-//W3C//DTD SVG 1.1//EN" "http://www.w3.org/Graphics/SVG/1.1/DTD/svg11.dtd"><svg class="icon" width="200px" height="200.00px" viewBox="0 0 1024 1024" version="1.1" xmlns="http://www.w3.org/2000/svg"><path  d="M531.2 1024h-38.4c-56.4608 0-102.4-45.9392-102.4-102.4v-37.76a25.6 25.6 0 0 1 51.2 0V921.6c0 28.2368 22.9632 51.2 51.2 51.2h38.4c28.2368 0 51.2-22.9632 51.2-51.2v-37.76a25.6 25.6 0 0 1 51.2 0V921.6c0 56.4608-45.9392 102.4-102.4 102.4zM608 165.76a25.6 25.6 0 0 1-25.6-25.6V102.4c0-28.2368-22.9632-51.2-51.2-51.2h-38.4c-28.2368 0-51.2 22.9632-51.2 51.2v37.76a25.6 25.6 0 0 1-51.2 0V102.4c0-56.4608 45.9392-102.4 102.4-102.4h38.4c56.4608 0 102.4 45.9392 102.4 102.4v37.76a25.6 25.6 0 0 1-25.6 25.6zM921.6 633.6h-37.76a25.6 25.6 0 0 1 0-51.2H921.6c28.2368 0 51.2-22.9632 51.2-51.2v-38.4c0-28.2368-22.9632-51.2-51.2-51.2h-37.76a25.6 25.6 0 0 1 0-51.2H921.6c56.4608 0 102.4 45.9392 102.4 102.4v38.4c0 56.4608-45.9392 102.4-102.4 102.4zM140.16 633.6H102.4c-56.4608 0-102.4-45.9392-102.4-102.4v-38.4c0-56.4608 45.9392-102.4 102.4-102.4h37.76a25.6 25.6 0 0 1 0 51.2H102.4c-28.2368 0-51.2 22.9632-51.2 51.2v38.4c0 28.2368 22.9632 51.2 51.2 51.2h37.76a25.6 25.6 0 0 1 0 51.2zM788.0704 917.5168a102.336 102.336 0 0 1-72.4352-29.8752l-26.7904-26.8032a25.6 25.6 0 1 1 36.1984-36.1984l26.752 26.7648c20.0064 19.904 52.5184 19.9552 72.4736 0l27.1104-27.136a51.392 51.392 0 0 0-0.0256-72.4992l-26.7136-26.7136a25.6 25.6 0 1 1 36.1984-36.1984l26.752 26.752c39.872 40.0384 39.8464 104.9984 0 144.8448l-27.1104 27.136a102.0928 102.0928 0 0 1-72.4096 29.9264zM181.248 342.656a25.536 25.536 0 0 1-18.0992-7.488l-26.752-26.752c-39.872-40.0512-39.8592-105.024 0-144.8832l27.1488-27.136c39.8464-39.872 104.8192-39.8848 144.832-0.0384l26.7904 26.7904a25.6 25.6 0 0 1-36.2112 36.2112l-26.752-26.752a51.392 51.392 0 0 0-72.4608 0l-27.136 27.136c-19.9296 19.9424-19.9168 52.4672 0.0384 72.512l26.7136 26.7008a25.6 25.6 0 0 1-18.112 43.6992zM842.7392 342.656a25.6 25.6 0 0 1-18.0992-43.712l26.7648-26.752a51.392 51.392 0 0 0 0-72.4736l-27.1488-27.136c-19.9424-19.9424-52.4544-19.9168-72.4864 0.0256l-26.7136 26.7136a25.6 25.6 0 1 1-36.1984-36.2112l26.752-26.752c40.0256-39.8592 104.9984-39.8592 144.8448 0l27.1488 27.136c39.8464 39.8592 39.872 104.832 0.0384 144.8448l-26.8032 26.7904a25.4208 25.4208 0 0 1-18.0992 7.5264zM235.904 917.504a101.952 101.952 0 0 1-72.3712-29.9008l-27.1488-27.1488c-39.8464-39.8464-39.872-104.8064-0.0256-144.8064l26.7904-26.7904a25.6 25.6 0 1 1 36.2112 36.1984l-26.752 26.752a51.3792 51.3792 0 0 0 0 72.448l27.1488 27.1488c19.9168 19.9296 52.4416 19.9296 72.4864-0.0384l26.7136-26.7264a25.6 25.6 0 1 1 36.2112 36.1984l-26.752 26.7648a102.528 102.528 0 0 1-72.512 29.9008z"  /><path  d="M317.0816 206.8608a25.6 25.6 0 0 1-13.0816-47.6288A406.2464 406.2464 0 0 1 409.6 115.3792a25.6128 25.6128 0 0 1 12.8 49.5872 354.8672 354.8672 0 0 0-92.288 38.3232c-4.096 2.4064-8.5888 3.5712-13.0304 3.5712zM883.8272 441.6a25.6256 25.6256 0 0 1-24.7808-19.2 354.8672 354.8672 0 0 0-38.3232-92.288 25.6 25.6 0 0 1 44.0448-26.0992 406.2464 406.2464 0 0 1 43.8528 105.6 25.6128 25.6128 0 0 1-24.7936 31.9872zM607.9872 909.44A25.6128 25.6128 0 0 1 601.6 859.0464a355.072 355.072 0 0 0 92.3008-38.3232 25.6 25.6 0 0 1 26.0992 44.0448A406.976 406.976 0 0 1 614.4 908.6208a25.856 25.856 0 0 1-6.4128 0.8192zM181.2736 732.544a25.6256 25.6256 0 0 1-22.0544-12.544A406.9504 406.9504 0 0 1 115.3792 614.4a25.6128 25.6128 0 0 1 49.5872-12.8 355.5072 355.5072 0 0 0 38.3232 92.3008 25.6 25.6 0 0 1-22.016 38.6432zM140.1856 441.6A25.6 25.6 0 0 1 115.3792 409.6a406.4256 406.4256 0 0 1 43.8528-105.6 25.6 25.6 0 0 1 44.0448 26.0992 355.0592 355.0592 0 0 0-38.3232 92.288 25.6 25.6 0 0 1-24.768 19.2128zM416.0128 909.44a26.368 26.368 0 0 1-6.4128-0.8064 405.9904 405.9904 0 0 1-105.6-43.8528 25.6 25.6 0 0 1 26.0992-44.0448 355.0592 355.0592 0 0 0 92.288 38.3232 25.6 25.6 0 1 1-6.3744 50.3808zM842.7264 732.544a25.5744 25.5744 0 0 1-22.0032-38.6432A355.072 355.072 0 0 0 859.0464 601.6a25.6 25.6 0 1 1 49.5872 12.8 406.528 406.528 0 0 1-43.8528 105.6 25.6 25.6 0 0 1-22.0544 12.544zM706.9312 206.8608a25.472 25.472 0 0 1-13.0304-3.584A355.5072 355.5072 0 0 0 601.6 164.9536a25.6128 25.6128 0 0 1 12.8-49.5744 406.528 406.528 0 0 1 105.6 43.8528 25.6 25.6 0 0 1-13.0688 47.6288zM512 678.4c-91.7504 0-166.4-74.6496-166.4-166.4s74.6496-166.4 166.4-166.4 166.4 74.6496 166.4 166.4-74.6496 166.4-166.4 166.4z m0-281.6c-63.5136 0-115.2 51.6864-115.2 115.2 0 63.5264 51.6864 115.2 115.2 115.2 63.5264 0 115.2-51.6736 115.2-115.2 0-63.5136-51.6736-115.2-115.2-115.2z"  /></svg>