<svg t="1572512287415" class="icon" viewBox="0 0 1024 1024" version="1.1" xmlns="http://www.w3.org/2000/svg" p-id="17730" width="200" height="200"><path d="M919.262 240.854 613.532 240.854c-18.794 0-33.977-15.22-33.977-33.972 0-18.747 15.183-33.965 33.977-33.965l305.729 0c18.783 0 33.973 15.218 33.973 33.965C953.234 225.634 938.045 240.854 919.262 240.854L919.262 240.854 919.262 240.854zM919.262 410.707 613.532 410.707c-18.794 0-33.977-15.219-33.977-33.978 0-18.746 15.183-33.966 33.977-33.966l305.729 0c18.783 0 33.973 15.22 33.973 33.966C953.234 395.488 938.045 410.707 919.262 410.707L919.262 410.707 919.262 410.707zM919.262 682.471 613.532 682.471c-18.794 0-33.977-15.188-33.977-33.972 0-18.784 15.183-33.967 33.977-33.967l305.729 0c18.783 0 33.973 15.183 33.973 33.967C953.234 667.282 938.045 682.471 919.262 682.471L919.262 682.471 919.262 682.471zM919.262 852.325 613.532 852.325c-18.794 0-33.977-15.188-33.977-33.973 0-18.79 15.183-33.973 33.977-33.973l305.729 0c18.783 0 33.973 15.183 33.973 33.973C953.234 837.137 938.045 852.325 919.262 852.325L919.262 852.325 919.262 852.325zM375.736 478.646 171.917 478.646C115.724 478.646 70 432.92 70 376.729L70 172.91C70 116.724 115.724 71 171.917 71l203.819 0c56.186 0 101.91 45.724 101.91 101.917l0 203.819C477.646 432.92 431.921 478.646 375.736 478.646L375.736 478.646 375.736 478.646zM171.917 138.943c-18.723 0-33.972 15.256-33.972 33.974l0 203.819c0 18.715 15.255 33.971 33.972 33.971l203.819 0c18.715 0 33.972-15.256 33.972-33.971L409.708 172.917c0-18.723-15.257-33.974-33.972-33.974L171.917 138.943 171.917 138.943zM375.736 954.234 171.917 954.234C115.724 954.234 70 908.51 70 852.325L70 648.499c0-56.186 45.724-101.916 101.917-101.916l203.819 0c56.186 0 101.91 45.73 101.91 101.916l0 203.826C477.646 908.504 431.921 954.234 375.736 954.234L375.736 954.234 375.736 954.234zM171.917 614.532c-18.723 0-33.972 15.213-33.972 33.967l0 203.826c0 18.745 15.255 33.964 33.972 33.964l203.819 0c18.715 0 33.972-15.219 33.972-33.964L409.708 648.499c0-18.754-15.257-33.967-33.972-33.967L171.917 614.532 171.917 614.532zM171.917 614.532" p-id="17731"></path></svg>